<svg xmlns="http://www.w3.org/2000/svg" viewBox="0 0 1600 960" fill="none">
  <rect width="1600" height="960" rx="40" fill="#07101C"/>
  <rect x="40" y="40" width="1520" height="880" rx="34" stroke="url(#a)" stroke-opacity=".45"/>
  <circle cx="1332" cy="202" r="220" fill="url(#b)" fill-opacity=".32"/>
  <circle cx="282" cy="802" r="280" fill="url(#c)" fill-opacity=".2"/>
  <rect x="100" y="110" width="1400" height="96" rx="24" fill="#0C1727" stroke="#29496B"/>
  <rect x="136" y="140" width="180" height="36" rx="18" fill="#122841"/>
  <rect x="348" y="140" width="94" height="12" rx="6" fill="#4B78A8"/>
  <rect x="462" y="140" width="94" height="12" rx="6" fill="#274363"/>
  <rect x="576" y="140" width="94" height="12" rx="6" fill="#274363"/>
  <rect x="690" y="140" width="94" height="12" rx="6" fill="#274363"/>
  <rect x="1200" y="130" width="240" height="52" rx="26" fill="#122841" stroke="#6BC6FF" stroke-opacity=".35"/>
  <rect x="100" y="248" width="420" height="274" rx="28" fill="#0C1727" stroke="#29496B"/>
  <rect x="132" y="284" width="200" height="16" rx="8" fill="#DCEBFF" fill-opacity=".9"/>
  <rect x="132" y="328" width="244" height="12" rx="6" fill="#43698F"/>
  <rect x="132" y="360" width="176" height="12" rx="6" fill="#274363"/>
  <rect x="132" y="420" width="116" height="12" rx="6" fill="#6BC6FF"/>
  <rect x="132" y="458" width="324" height="18" rx="9" fill="#132740"/>
  <rect x="132" y="488" width="284" height="18" rx="9" fill="#132740"/>
  <rect x="560" y="248" width="420" height="274" rx="28" fill="#0C1727" stroke="#29496B"/>
  <rect x="592" y="284" width="180" height="16" rx="8" fill="#DCEBFF" fill-opacity=".9"/>
  <path d="M620 452C674 420 714 352 790 352C872 352 888 424 944 424" stroke="#6BC6FF" stroke-width="8" stroke-linecap="round"/>
  <circle cx="620" cy="452" r="14" fill="#6BC6FF"/>
  <circle cx="790" cy="352" r="14" fill="#6BC6FF"/>
  <circle cx="944" cy="424" r="14" fill="#6BC6FF"/>
  <rect x="1040" y="248" width="460" height="590" rx="28" fill="#0C1727" stroke="#29496B"/>
  <rect x="1076" y="286" width="200" height="16" rx="8" fill="#DCEBFF" fill-opacity=".9"/>
  <rect x="1076" y="334" width="388" height="188" rx="24" fill="#101F32"/>
  <rect x="1106" y="370" width="328" height="14" rx="7" fill="#2A4769"/>
  <rect x="1106" y="406" width="252" height="14" rx="7" fill="#274363"/>
  <rect x="1106" y="462" width="190" height="28" rx="14" fill="#132740" stroke="#6BC6FF" stroke-opacity=".35"/>
  <rect x="1106" y="562" width="150" height="14" rx="7" fill="#6BC6FF"/>
  <rect x="1106" y="604" width="318" height="18" rx="9" fill="#132740"/>
  <rect x="1106" y="638" width="284" height="18" rx="9" fill="#132740"/>
  <rect x="1106" y="672" width="330" height="18" rx="9" fill="#132740"/>
  <rect x="100" y="564" width="880" height="274" rx="28" fill="#0C1727" stroke="#29496B"/>
  <rect x="136" y="604" width="190" height="16" rx="8" fill="#DCEBFF" fill-opacity=".9"/>
  <rect x="136" y="648" width="804" height="1" fill="#29496B"/>
  <rect x="136" y="688" width="202" height="110" rx="22" fill="#101F32"/>
  <rect x="364" y="688" width="202" height="110" rx="22" fill="#101F32"/>
  <rect x="592" y="688" width="202" height="110" rx="22" fill="#101F32"/>
  <rect x="820" y="688" width="120" height="110" rx="22" fill="#122841" stroke="#6BC6FF" stroke-opacity=".32"/>
  <defs>
    <linearGradient id="a" x1="54" y1="60" x2="1578" y2="934" gradientUnits="userSpaceOnUse">
      <stop stop-color="#6BC6FF"/>
      <stop offset="1" stop-color="#3F5E80" stop-opacity=".1"/>
    </linearGradient>
    <radialGradient id="b" cx="0" cy="0" r="1" gradientUnits="userSpaceOnUse" gradientTransform="translate(1332 202) rotate(90) scale(220)">
      <stop stop-color="#67C9FF"/>
      <stop offset="1" stop-color="#67C9FF" stop-opacity="0"/>
    </radialGradient>
    <radialGradient id="c" cx="0" cy="0" r="1" gradientUnits="userSpaceOnUse" gradientTransform="translate(282 802) rotate(90) scale(280)">
      <stop stop-color="#4D7DFF"/>
      <stop offset="1" stop-color="#4D7DFF" stop-opacity="0"/>
    </radialGradient>
  </defs>
</svg>
